<svg width="21" height="21" viewBox="0 0 21 21" xmlns="http://www.w3.org/2000/svg">
    <g fill="none" fill-rule="evenodd">
        <circle stroke="#CCC" stroke-width="1.2" cx="10.5" cy="10.5" r="6.9"/>
        <path d="M7.8 8.732h1.397c.048-.726.541-1.19 1.308-1.19.75 0 1.25.447 1.25 1.065 0 .54-.21.85-.814 1.24l-.174.11c-.82.481-1.165 1.017-1.112 1.908l.006.405h1.38v-.34c0-.588.22-.891.998-1.349.81-.482 1.261-1.118 1.261-2.027 0-1.315-1.088-2.254-2.717-2.254-1.766 0-2.735 1.023-2.783 2.432zm2.616 6.374c-.594 0-.987-.375-.987-.945 0-.577.393-.952.987-.952.607 0 .987.375.987.952 0 .57-.38.945-.987.945z" fill="#CCC" fill-rule="nonzero"/>
    </g>
</svg>
